<svg width="53" height="52" viewBox="0 0 53 52" fill="none" xmlns="http://www.w3.org/2000/svg">
<path d="M26.4564 18.0408C30.6655 18.0408 34.1397 21.5149 34.1397 25.724C34.1397 29.9999 30.6655 33.4073 26.4564 33.4073C22.1805 33.4073 18.7731 29.9999 18.7731 25.724C18.7731 21.5149 22.1805 18.0408 26.4564 18.0408ZM26.4564 30.7349C29.1957 30.7349 31.4004 28.5301 31.4004 25.724C31.4004 22.9848 29.1957 20.78 26.4564 20.78C23.6504 20.78 21.4456 22.9848 21.4456 25.724C21.4456 28.5301 23.7172 30.7349 26.4564 30.7349ZM36.2108 17.7735C36.2108 18.7757 35.4091 19.5774 34.4069 19.5774C33.4048 19.5774 32.603 18.7757 32.603 17.7735C32.603 16.7713 33.4048 15.9696 34.4069 15.9696C35.4091 15.9696 36.2108 16.7713 36.2108 17.7735ZM41.2885 19.5774C41.4221 22.0494 41.4221 29.4655 41.2885 31.9375C41.1549 34.3427 40.6204 36.4138 38.8833 38.2177C37.1462 39.9548 35.0082 40.4893 32.603 40.6229C30.131 40.7565 22.715 40.7565 20.243 40.6229C17.8378 40.4893 15.7666 39.9548 13.9627 38.2177C12.2257 36.4138 11.6912 34.3427 11.5576 31.9375C11.4239 29.4655 11.4239 22.0494 11.5576 19.5774C11.6912 17.1722 12.2257 15.0343 13.9627 13.2972C15.7666 11.5601 17.8378 11.0256 20.243 10.892C22.715 10.7583 30.131 10.7583 32.603 10.892C35.0082 11.0256 37.1462 11.5601 38.8833 13.2972C40.6204 15.0343 41.1549 17.1722 41.2885 19.5774ZM38.0815 34.5431C38.8833 32.6056 38.6828 27.9288 38.6828 25.724C38.6828 23.5861 38.8833 18.9093 38.0815 16.905C37.5471 15.6356 36.5449 14.5666 35.2755 14.0989C33.2712 13.2972 28.5944 13.4976 26.4564 13.4976C24.2517 13.4976 19.5749 13.2972 17.6374 14.0989C16.3011 14.6334 15.299 15.6356 14.7645 16.905C13.9627 18.9093 14.1632 23.5861 14.1632 25.724C14.1632 27.9288 13.9627 32.6056 14.7645 34.5431C15.299 35.8793 16.3011 36.8815 17.6374 37.416C19.5749 38.2177 24.2517 38.0173 26.4564 38.0173C28.5944 38.0173 33.2712 38.2177 35.2755 37.416C36.5449 36.8815 37.6139 35.8793 38.0815 34.5431Z" fill="white"/>
</svg>
