<svg width="47" height="47" viewBox="0 0 47 47" fill="none" xmlns="http://www.w3.org/2000/svg">
<path d="M35.4886 10.2482C36.5108 10.2482 37.4128 11.1501 37.4128 12.2324V35.2622C37.4128 36.3445 36.5108 37.1864 35.4886 37.1864H12.3386C11.3164 37.1864 10.4746 36.3445 10.4746 35.2622V12.2324C10.4746 11.1501 11.3164 10.2482 12.3386 10.2482H35.4886ZM18.5921 33.338V20.5304H14.6235V33.338H18.5921ZM16.6078 18.7265C17.8705 18.7265 18.8928 17.7043 18.8928 16.4415C18.8928 15.1788 17.8705 14.0965 16.6078 14.0965C15.285 14.0965 14.2627 15.1788 14.2627 16.4415C14.2627 17.7043 15.285 18.7265 16.6078 18.7265ZM33.5645 33.338V26.3028C33.5645 22.8754 32.7828 20.1696 28.7541 20.1696C26.8299 20.1696 25.507 21.2519 24.9659 22.2741H24.9057V20.5304H21.1176V33.338H25.0861V27.0244C25.0861 25.3408 25.3868 23.7173 27.4913 23.7173C29.5357 23.7173 29.5357 25.6414 29.5357 27.0845V33.338H33.5645Z" fill="white"/>
</svg>
