<svg width="49" height="50" viewBox="0 0 49 50" fill="none" xmlns="http://www.w3.org/2000/svg">
<path d="M37.5863 17.6197C37.5863 17.9371 37.5863 18.191 37.5863 18.5083C37.5863 27.3307 30.9219 37.4225 18.6721 37.4225C14.8639 37.4225 11.373 36.3435 8.45335 34.4394C8.96111 34.5029 9.46887 34.5663 10.0401 34.5663C13.1502 34.5663 16.0063 33.4873 18.2913 31.7102C15.3716 31.6467 12.8963 29.7426 12.0712 27.0768C12.5155 27.1403 12.8963 27.2038 13.3406 27.2038C13.9118 27.2038 14.5465 27.0768 15.0543 26.9499C12.0077 26.3152 9.72276 23.6494 9.72276 20.4124V20.349C10.6113 20.8567 11.6903 21.1106 12.7693 21.1741C10.9287 19.9681 9.78623 17.9371 9.78623 15.6521C9.78623 14.3827 10.1036 13.2403 10.6748 12.2882C13.9753 16.2868 18.926 18.9526 24.4479 19.27C24.321 18.7622 24.2575 18.2544 24.2575 17.7467C24.2575 14.0654 27.2406 11.0823 30.9219 11.0823C32.826 11.0823 34.5397 11.8439 35.8091 13.1768C37.2689 12.8594 38.7288 12.2882 39.9982 11.5266C39.4904 13.1133 38.4749 14.3827 37.0785 15.2079C38.4114 15.0809 39.7443 14.7001 40.8867 14.1923C39.9982 15.5252 38.8557 16.6677 37.5863 17.6197Z" fill="white"/>
</svg>
