<svg width="728" height="1066" viewBox="0 0 728 1066" fill="none" xmlns="http://www.w3.org/2000/svg">
<g filter="url(#filter0_d_485_866)">
<g clip-path="url(#clip0_485_866)">
<path d="M18 17H678C692.359 17 704 28.6406 704 43V1015C704 1029.36 692.359 1041 678 1041H18V17Z" fill="#FCFCFC"/>
<rect width="200" height="200" transform="matrix(-1 0 0 1 618 17)" fill="#C780FA"/>
<path d="M618 117C618 172.228 573.228 217 518 217V17C573.228 17 618 61.7715 618 117Z" fill="#C23BF9"/>
<path d="M418 117C418 172.228 462.772 217 518 217V17C462.772 17 418 61.7715 418 117Z" fill="#E9C0F9"/>
<rect width="200" height="200" transform="matrix(0 -1 -1 0 818 217)" fill="#C780FA"/>
<path d="M618 217V192L643 217H618Z" fill="#1E1E1E"/>
<path d="M643 217V192L668 217H643Z" fill="#1E1E1E"/>
<path d="M668 217V192L693 217H668Z" fill="#1E1E1E"/>
<path d="M693 217V192L718 217H693Z" fill="#1E1E1E"/>
<path d="M618 192V167L643 192H618Z" fill="#1E1E1E"/>
<path d="M643 192V167L668 192H643Z" fill="#1E1E1E"/>
<path d="M668 192V167L693 192H668Z" fill="#1E1E1E"/>
<path d="M693 192V167L718 192H693Z" fill="#1E1E1E"/>
<path d="M618 167V142L643 167H618Z" fill="#1E1E1E"/>
<path d="M643 167V142L668 167H643Z" fill="#1E1E1E"/>
<path d="M668 167V142L693 167H668Z" fill="#1E1E1E"/>
<path d="M693 167V142L718 167H693Z" fill="#1E1E1E"/>
<path d="M618 142V117L643 142H618Z" fill="#1E1E1E"/>
<path d="M643 142V117L668 142H643Z" fill="#1E1E1E"/>
<path d="M668 142V117L693 142H668Z" fill="#1E1E1E"/>
<path d="M693 142V117L718 142H693Z" fill="#1E1E1E"/>
<path d="M618 117V92L643 117H618Z" fill="#1E1E1E"/>
<path d="M643 117V92L668 117H643Z" fill="#1E1E1E"/>
<path d="M668 117V92L693 117H668Z" fill="#1E1E1E"/>
<path d="M693 117V92L718 117H693Z" fill="#1E1E1E"/>
<path d="M618 92V67L643 92H618Z" fill="#1E1E1E"/>
<path d="M643 92V67L668 92H643Z" fill="#1E1E1E"/>
<path d="M668 92V67L693 92H668Z" fill="#1E1E1E"/>
<path d="M618 67V42L643 67H618Z" fill="#1E1E1E"/>
<path d="M643 67V42L668 67H643Z" fill="#1E1E1E"/>
<path d="M618 42V17L643 42H618Z" fill="#1E1E1E"/>
<rect x="418" y="417" width="200" height="200" transform="rotate(-90 418 417)" fill="#C780FA"/>
<path d="M418 317C473.228 317 518 272.228 518 217H418V317Z" fill="#E9C0F9"/>
<path d="M618 317C562.772 317 518 272.228 518 217H618V317Z" fill="#C23BF9"/>
<path d="M418 317C473.228 317 518 361.772 518 417H418V317Z" fill="#E9C0F9"/>
<path d="M618 317C562.772 317 518 361.772 518 417H618V317Z" fill="#C23BF9"/>
<rect width="200" height="200" transform="matrix(0 -1 -1 0 818 417)" fill="#C780FA"/>
<path d="M818 217C818 243.264 812.827 269.272 802.776 293.537C792.725 317.802 777.993 339.85 759.421 358.421C740.85 376.993 718.802 391.725 694.537 401.776C670.272 411.827 644.264 417 618 417L618 217H818Z" fill="#1E1E1E"/>
<path d="M718 217C718 230.132 715.413 243.136 710.388 255.268C705.362 267.401 697.997 278.425 688.711 287.711C679.425 296.997 668.401 304.362 656.268 309.388C644.136 314.413 631.132 317 618 317L618 217H718Z" fill="#C23BF9"/>
<rect x="18" y="17" width="200" height="200" fill="#C780FA"/>
<path d="M118 17C118 72.2285 162.772 117 218 117V17H118Z" fill="#D8A8FA"/>
<path d="M118 217C118 161.772 162.772 117 218 117V217H118Z" fill="#1E1E1E"/>
<path d="M118 17C118 72.2285 73.2285 117 18 117V17H118Z" fill="#D8A8FA"/>
<path d="M118 217C118 161.772 73.2285 117 18 117V217H118Z" fill="#C23BF9"/>
<rect width="200" height="200" transform="matrix(1 0 0 -1 218 217)" fill="#C780FA"/>
<path d="M218 117C218 61.7715 262.772 17 318 17V217C262.772 217 218 172.228 218 117Z" fill="#C23BF9"/>
<path d="M418 117C418 61.7715 373.228 17 318 17L318 217C373.228 217 418 172.228 418 117Z" fill="#C23BF9"/>
<rect x="18" y="417" width="200" height="200" transform="rotate(-90 18 417)" fill="#C780FA"/>
<path d="M218 417V392L193 417H218Z" fill="#1E1E1E"/>
<path d="M193 417V392L168 417H193Z" fill="#1E1E1E"/>
<path d="M168 417V392L143 417H168Z" fill="#1E1E1E"/>
<path d="M143 417V392L118 417H143Z" fill="#1E1E1E"/>
<path d="M118 417V392L93 417H118Z" fill="#1E1E1E"/>
<path d="M93 417V392L68 417H93Z" fill="#1E1E1E"/>
<path d="M68 417V392L43 417H68Z" fill="#1E1E1E"/>
<path d="M43 417V392L18 417H43Z" fill="#1E1E1E"/>
<path d="M218 392V367L193 392H218Z" fill="#1E1E1E"/>
<path d="M193 392V367L168 392H193Z" fill="#1E1E1E"/>
<path d="M168 392V367L143 392H168Z" fill="#1E1E1E"/>
<path d="M143 392V367L118 392H143Z" fill="#1E1E1E"/>
<path d="M118 392V367L93 392H118Z" fill="#1E1E1E"/>
<path d="M93 392V367L68 392H93Z" fill="#1E1E1E"/>
<path d="M68 392V367L43 392H68Z" fill="#1E1E1E"/>
<path d="M218 367V342L193 367H218Z" fill="#1E1E1E"/>
<path d="M193 367V342L168 367H193Z" fill="#1E1E1E"/>
<path d="M168 367V342L143 367H168Z" fill="#1E1E1E"/>
<path d="M143 367V342L118 367H143Z" fill="#1E1E1E"/>
<path d="M118 367V342L93 367H118Z" fill="#1E1E1E"/>
<path d="M93 367V342L68 367H93Z" fill="#1E1E1E"/>
<path d="M218 342V317L193 342H218Z" fill="#1E1E1E"/>
<path d="M193 342V317L168 342H193Z" fill="#1E1E1E"/>
<path d="M168 342V317L143 342H168Z" fill="#1E1E1E"/>
<path d="M143 342V317L118 342H143Z" fill="#1E1E1E"/>
<path d="M118 342V317L93 342H118Z" fill="#1E1E1E"/>
<path d="M218 317V292L193 317H218Z" fill="#1E1E1E"/>
<path d="M193 317V292L168 317H193Z" fill="#1E1E1E"/>
<path d="M168 317V292L143 317H168Z" fill="#1E1E1E"/>
<path d="M143 317V292L118 317H143Z" fill="#1E1E1E"/>
<path d="M218 292V267L193 292H218Z" fill="#1E1E1E"/>
<path d="M193 292V267L168 292H193Z" fill="#1E1E1E"/>
<path d="M168 292V267L143 292H168Z" fill="#1E1E1E"/>
<path d="M218 267V242L193 267H218Z" fill="#1E1E1E"/>
<path d="M193 267V242L168 267H193Z" fill="#1E1E1E"/>
<path d="M218 242V217L193 242H218Z" fill="#1E1E1E"/>
<rect x="218" y="417" width="200" height="200" transform="rotate(-90 218 417)" fill="#D8A8FA"/>
<rect width="200" height="200" transform="matrix(-1 0 0 1 218 640)" fill="#C780FA"/>
<path d="M218 740C218 795.228 173.228 840 118 840L118 640C173.228 640 218 684.772 218 740Z" fill="#C23BF9"/>
<path d="M18 740C18 795.228 62.7715 840 118 840L118 640C62.7715 640 18 684.772 18 740Z" fill="#E9C0F9"/>
<rect width="200" height="200" transform="matrix(0 -1 -1 0 418 840)" fill="#C780FA"/>
<path d="M218 840V815L243 840H218Z" fill="#1E1E1E"/>
<path d="M243 840V815L268 840H243Z" fill="#1E1E1E"/>
<path d="M268 840V815L293 840H268Z" fill="#1E1E1E"/>
<path d="M293 840V815L318 840H293Z" fill="#1E1E1E"/>
<path d="M318 840V815L343 840H318Z" fill="#1E1E1E"/>
<path d="M343 840V815L368 840H343Z" fill="#1E1E1E"/>
<path d="M368 840V815L393 840H368Z" fill="#1E1E1E"/>
<path d="M393 840V815L418 840H393Z" fill="#1E1E1E"/>
<path d="M218 815V790L243 815H218Z" fill="#1E1E1E"/>
<path d="M243 815V790L268 815H243Z" fill="#1E1E1E"/>
<path d="M268 815V790L293 815H268Z" fill="#1E1E1E"/>
<path d="M293 815V790L318 815H293Z" fill="#1E1E1E"/>
<path d="M318 815V790L343 815H318Z" fill="#1E1E1E"/>
<path d="M343 815V790L368 815H343Z" fill="#1E1E1E"/>
<path d="M368 815V790L393 815H368Z" fill="#1E1E1E"/>
<path d="M218 790V765L243 790H218Z" fill="#1E1E1E"/>
<path d="M243 790V765L268 790H243Z" fill="#1E1E1E"/>
<path d="M268 790V765L293 790H268Z" fill="#1E1E1E"/>
<path d="M293 790V765L318 790H293Z" fill="#1E1E1E"/>
<path d="M318 790V765L343 790H318Z" fill="#1E1E1E"/>
<path d="M343 790V765L368 790H343Z" fill="#1E1E1E"/>
<path d="M218 765V740L243 765H218Z" fill="#1E1E1E"/>
<path d="M243 765V740L268 765H243Z" fill="#1E1E1E"/>
<path d="M268 765V740L293 765H268Z" fill="#1E1E1E"/>
<path d="M293 765V740L318 765H293Z" fill="#1E1E1E"/>
<path d="M318 765V740L343 765H318Z" fill="#1E1E1E"/>
<path d="M218 740V715L243 740H218Z" fill="#1E1E1E"/>
<path d="M243 740V715L268 740H243Z" fill="#1E1E1E"/>
<path d="M268 740V715L293 740H268Z" fill="#1E1E1E"/>
<path d="M293 740V715L318 740H293Z" fill="#1E1E1E"/>
<path d="M218 715V690L243 715H218Z" fill="#1E1E1E"/>
<path d="M243 715V690L268 715H243Z" fill="#1E1E1E"/>
<path d="M268 715V690L293 715H268Z" fill="#1E1E1E"/>
<path d="M218 690V665L243 690H218Z" fill="#1E1E1E"/>
<path d="M243 690V665L268 690H243Z" fill="#1E1E1E"/>
<path d="M218 665V640L243 665H218Z" fill="#1E1E1E"/>
<rect x="18" y="1040" width="200" height="200" transform="rotate(-90 18 1040)" fill="#C780FA"/>
<path d="M18 940C73.2285 940 118 895.228 118 840H18V940Z" fill="#E9C0F9"/>
<path d="M218 940C162.772 940 118 895.228 118 840H218V940Z" fill="#C23BF9"/>
<path d="M18 940C73.2285 940 118 984.772 118 1040H18V940Z" fill="#E9C0F9"/>
<path d="M218 940C162.772 940 118 984.772 118 1040H218V940Z" fill="#C23BF9"/>
<rect width="200" height="200" transform="matrix(0 -1 -1 0 418 1040)" fill="#C780FA"/>
<path d="M418 840C418 866.264 412.827 892.272 402.776 916.537C392.725 940.802 377.993 962.85 359.421 981.421C340.85 999.993 318.802 1014.72 294.537 1024.78C270.272 1034.83 244.264 1040 218 1040L218 840H418Z" fill="#1E1E1E"/>
<path d="M318 840C318 853.132 315.413 866.136 310.388 878.268C305.362 890.401 297.997 901.425 288.711 910.711C279.425 919.997 268.401 927.362 256.268 932.388C244.136 937.413 231.132 940 218 940L218 840H318Z" fill="#C23BF9"/>
<rect x="418" y="640" width="200" height="200" fill="#C780FA"/>
<path d="M518 640C518 695.228 562.772 740 618 740V640H518Z" fill="#D8A8FA"/>
<path d="M518 840C518 784.772 562.772 740 618 740V840H518Z" fill="#1E1E1E"/>
<path d="M518 640C518 695.228 473.228 740 418 740V640H518Z" fill="#D8A8FA"/>
<path d="M518 840C518 784.772 473.228 740 418 740V840H518Z" fill="#C23BF9"/>
<rect width="200" height="200" transform="matrix(1 0 0 -1 618 840)" fill="#C780FA"/>
<path d="M618 740C618 684.772 662.772 640 718 640V840C662.772 840 618 795.228 618 740Z" fill="#C23BF9"/>
<rect x="418" y="1040" width="200" height="200" transform="rotate(-90 418 1040)" fill="#C780FA"/>
<path d="M618 1040V1015L593 1040H618Z" fill="#1E1E1E"/>
<path d="M593 1040V1015L568 1040H593Z" fill="#1E1E1E"/>
<path d="M568 1040V1015L543 1040H568Z" fill="#1E1E1E"/>
<path d="M543 1040V1015L518 1040H543Z" fill="#1E1E1E"/>
<path d="M518 1040V1015L493 1040H518Z" fill="#1E1E1E"/>
<path d="M493 1040V1015L468 1040H493Z" fill="#1E1E1E"/>
<path d="M468 1040V1015L443 1040H468Z" fill="#1E1E1E"/>
<path d="M443 1040V1015L418 1040H443Z" fill="#1E1E1E"/>
<path d="M618 1015V990L593 1015H618Z" fill="#1E1E1E"/>
<path d="M593 1015V990L568 1015H593Z" fill="#1E1E1E"/>
<path d="M568 1015V990L543 1015H568Z" fill="#1E1E1E"/>
<path d="M543 1015V990L518 1015H543Z" fill="#1E1E1E"/>
<path d="M518 1015V990L493 1015H518Z" fill="#1E1E1E"/>
<path d="M493 1015V990L468 1015H493Z" fill="#1E1E1E"/>
<path d="M468 1015V990L443 1015H468Z" fill="#1E1E1E"/>
<path d="M618 990V965L593 990H618Z" fill="#1E1E1E"/>
<path d="M593 990V965L568 990H593Z" fill="#1E1E1E"/>
<path d="M568 990V965L543 990H568Z" fill="#1E1E1E"/>
<path d="M543 990V965L518 990H543Z" fill="#1E1E1E"/>
<path d="M518 990V965L493 990H518Z" fill="#1E1E1E"/>
<path d="M493 990V965L468 990H493Z" fill="#1E1E1E"/>
<path d="M618 965V940L593 965H618Z" fill="#1E1E1E"/>
<path d="M593 965V940L568 965H593Z" fill="#1E1E1E"/>
<path d="M568 965V940L543 965H568Z" fill="#1E1E1E"/>
<path d="M543 965V940L518 965H543Z" fill="#1E1E1E"/>
<path d="M518 965V940L493 965H518Z" fill="#1E1E1E"/>
<path d="M618 940V915L593 940H618Z" fill="#1E1E1E"/>
<path d="M593 940V915L568 940H593Z" fill="#1E1E1E"/>
<path d="M568 940V915L543 940H568Z" fill="#1E1E1E"/>
<path d="M543 940V915L518 940H543Z" fill="#1E1E1E"/>
<path d="M618 915V890L593 915H618Z" fill="#1E1E1E"/>
<path d="M593 915V890L568 915H593Z" fill="#1E1E1E"/>
<path d="M568 915V890L543 915H568Z" fill="#1E1E1E"/>
<path d="M618 890V865L593 890H618Z" fill="#1E1E1E"/>
<path d="M593 890V865L568 890H593Z" fill="#1E1E1E"/>
<path d="M618 865V840L593 865H618Z" fill="#1E1E1E"/>
<rect x="618" y="1040" width="200" height="200" transform="rotate(-90 618 1040)" fill="#D8A8FA"/>
<path d="M355.5 479V486.478C355.5 493.229 360.762 498.81 367.501 499.206V499.206C374.825 499.637 381 493.814 381 486.478V477.75C381 470.708 375.292 465 368.25 465V465C361.208 465 355.5 470.708 355.5 477.75V520" stroke="url(#paint0_linear_485_866)" stroke-width="10"/>
<path d="M330 512H342.5C349.68 512 355.5 517.82 355.5 525V540.449" stroke="url(#paint1_linear_485_866)" stroke-width="10"/>
<path d="M381 512H368.5C361.32 512 355.5 517.82 355.5 525V540.449" stroke="url(#paint2_linear_485_866)" stroke-width="10"/>
<path d="M269.8 556.6V555H278.6C285.16 555 289.267 556.573 290.92 559.72C291.587 560.947 291.92 562.44 291.92 564.2C291.92 565.96 291.587 567.453 290.92 568.68C290.28 569.907 289.333 570.853 288.08 571.52C285.733 572.773 282.573 573.4 278.6 573.4H278.2V581.4H281.4V583H269.8V581.4H272.2V556.6H269.8ZM278.6 556.6H278.2V571.8H278.6C280.707 571.8 282.453 571.133 283.84 569.8C285.227 568.467 285.92 566.6 285.92 564.2C285.92 561.8 285.227 559.933 283.84 558.6C282.453 557.267 280.707 556.6 278.6 556.6ZM314.808 563V578.56C314.808 579.28 314.981 579.853 315.328 580.28C315.675 580.68 316.208 580.88 316.928 580.88C317.648 580.88 318.475 580.493 319.408 579.72L320.128 580.68C317.995 582.627 315.861 583.6 313.728 583.6C311.195 583.6 309.635 582.413 309.048 580.04C307.661 582.413 305.621 583.6 302.928 583.6C299.861 583.6 297.528 582.613 295.928 580.64C294.328 578.64 293.528 576.107 293.528 573.04C293.528 569.947 294.381 567.4 296.088 565.4C297.821 563.4 300.235 562.4 303.328 562.4C305.701 562.4 307.528 563.347 308.808 565.24V563H314.808ZM300.848 566.92C300.101 568.413 299.728 570.44 299.728 573C299.728 575.56 300.101 577.587 300.848 579.08C301.595 580.573 302.728 581.32 304.248 581.32C305.795 581.32 306.968 580.573 307.768 579.08C308.595 577.56 309.008 575.533 309.008 573C309.008 570.467 308.595 568.453 307.768 566.96C306.968 565.44 305.795 564.68 304.248 564.68C302.728 564.68 301.595 565.427 300.848 566.92ZM332.647 562.4C333.447 562.4 333.847 563.16 333.847 564.68V578.56C333.847 579.28 334.02 579.853 334.367 580.28C334.713 580.68 335.247 580.88 335.967 580.88C336.687 580.88 337.513 580.493 338.447 579.72L339.167 580.68C337.033 582.627 334.9 583.6 332.767 583.6C329.487 583.6 327.847 581.64 327.847 577.72V566.48C326.593 566.987 325.073 567.333 323.287 567.52C323.073 569.973 322.367 572.427 321.167 574.88L319.527 574.4C320.273 572.507 320.673 570.253 320.727 567.64C319.713 567.64 318.887 567.347 318.247 566.76C317.633 566.173 317.327 565.453 317.327 564.6C317.327 563.72 317.62 562.987 318.207 562.4C318.82 561.787 319.553 561.48 320.407 561.48C321.287 561.48 322.02 561.787 322.607 562.4C323.193 563.013 323.487 563.8 323.487 564.76H324.247C326.353 564.76 328.593 564.173 330.967 563C331.74 562.6 332.3 562.4 332.647 562.4ZM337.532 565.2V563.56H340.812V557.8H346.812V563.56H351.332V565.2H346.812V578.56C346.812 579.28 346.985 579.853 347.332 580.28C347.679 580.68 348.212 580.88 348.932 580.88C349.652 580.88 350.479 580.493 351.412 579.72L352.132 580.68C349.999 582.627 347.865 583.6 345.732 583.6C342.452 583.6 340.812 581.64 340.812 577.72V565.2H337.532ZM356.685 558.48C356.072 557.84 355.765 557.08 355.765 556.2C355.765 555.32 356.072 554.573 356.685 553.96C357.325 553.32 358.085 553 358.965 553C359.845 553 360.592 553.32 361.205 553.96C361.845 554.573 362.165 555.32 362.165 556.2C362.165 557.08 361.845 557.84 361.205 558.48C360.592 559.093 359.845 559.4 358.965 559.4C358.085 559.4 357.325 559.093 356.685 558.48ZM358.205 562.4C360.712 562.4 361.965 563.48 361.965 565.64V578.56C361.965 579.28 362.138 579.853 362.485 580.28C362.832 580.68 363.365 580.88 364.085 580.88C364.805 580.88 365.632 580.493 366.565 579.72L367.285 580.68C365.152 582.627 363.018 583.6 360.885 583.6C357.605 583.6 355.965 581.64 355.965 577.72V564.32C354.498 564.693 353.378 565.347 352.605 566.28L351.525 565.04C352.298 564.24 353.272 563.6 354.445 563.12C355.645 562.64 356.898 562.4 358.205 562.4ZM365.302 563.72C366.448 563.24 367.675 563 368.982 563C370.315 563 371.408 563.16 372.262 563.48C373.142 563.8 374.048 564.307 374.982 565C375.942 564.04 376.915 563.373 377.902 563C378.915 562.6 380.102 562.4 381.462 562.4C384.182 562.4 385.995 563.44 386.902 565.52C387.942 564.373 388.982 563.573 390.022 563.12C391.088 562.64 392.462 562.4 394.142 562.4C395.848 562.4 397.222 562.933 398.262 564C399.328 565.04 399.862 566.467 399.862 568.28V578.56C399.862 579.28 400.035 579.853 400.382 580.28C400.728 580.68 401.262 580.88 401.982 580.88C402.702 580.88 403.528 580.493 404.462 579.72L405.182 580.68C403.048 582.627 400.915 583.6 398.782 583.6C395.502 583.6 393.862 581.64 393.862 577.72V567.44C393.862 566.613 393.622 565.973 393.142 565.52C392.662 565.067 391.995 564.84 391.142 564.84C390.315 564.84 389.488 565.2 388.662 565.92C387.862 566.64 387.462 567.573 387.462 568.72V583H381.462V567.44C381.462 566.613 381.222 565.973 380.742 565.52C380.262 565.067 379.595 564.84 378.742 564.84C377.915 564.84 377.088 565.2 376.262 565.92C375.462 566.64 375.062 567.573 375.062 568.72V583H369.062V564.6C367.862 564.6 366.795 564.8 365.862 565.2L365.302 563.72ZM412.935 573.76C414.668 573.6 416.002 572.947 416.935 571.8C417.895 570.627 418.375 569.453 418.375 568.28C418.375 567.08 418.108 566.16 417.575 565.52C417.068 564.88 416.282 564.56 415.215 564.56C414.175 564.56 413.175 565.307 412.215 566.8C411.255 568.293 410.775 570.293 410.775 572.8C410.775 575.307 411.228 577.32 412.135 578.84C413.042 580.36 414.335 581.12 416.015 581.12C418.575 581.12 420.748 580.12 422.535 578.12L423.655 578.84C422.748 580.28 421.548 581.44 420.055 582.32C418.562 583.173 416.882 583.6 415.015 583.6C411.842 583.6 409.308 582.56 407.415 580.48C405.522 578.373 404.575 575.84 404.575 572.88C404.575 569.92 405.575 567.44 407.575 565.44C409.602 563.413 412.402 562.4 415.975 562.4C418.322 562.4 420.162 562.947 421.495 564.04C422.828 565.133 423.495 566.52 423.495 568.2C423.495 569.88 422.748 571.44 421.255 572.88C419.788 574.293 417.842 575 415.415 575C414.588 575 413.788 574.907 413.015 574.72L412.935 573.76ZM439.162 562.4C439.962 562.4 440.362 563.16 440.362 564.68V578.56C440.362 579.28 440.536 579.853 440.882 580.28C441.229 580.68 441.762 580.88 442.482 580.88C443.202 580.88 444.029 580.493 444.962 579.72L445.682 580.68C443.549 582.627 441.416 583.6 439.282 583.6C436.002 583.6 434.362 581.64 434.362 577.72V566.48C433.109 566.987 431.589 567.333 429.802 567.52C429.589 569.973 428.882 572.427 427.682 574.88L426.042 574.4C426.789 572.507 427.189 570.253 427.242 567.64C426.229 567.64 425.402 567.347 424.762 566.76C424.149 566.173 423.842 565.453 423.842 564.6C423.842 563.72 424.136 562.987 424.722 562.4C425.336 561.787 426.069 561.48 426.922 561.48C427.802 561.48 428.536 561.787 429.122 562.4C429.709 563.013 430.002 563.8 430.002 564.76H430.762C432.869 564.76 435.109 564.173 437.482 563C438.256 562.6 438.816 562.4 439.162 562.4Z" fill="url(#paint3_linear_485_866)"/>
</g>
</g>
<defs>
<filter id="filter0_d_485_866" x="0" y="0" width="728" height="1066" filterUnits="userSpaceOnUse" color-interpolation-filters="sRGB">
<feFlood flood-opacity="0" result="BackgroundImageFix"/>
<feColorMatrix in="SourceAlpha" type="matrix" values="0 0 0 0 0 0 0 0 0 0 0 0 0 0 0 0 0 0 127 0" result="hardAlpha"/>
<feOffset dx="3" dy="4"/>
<feGaussianBlur stdDeviation="10.5"/>
<feComposite in2="hardAlpha" operator="out"/>
<feColorMatrix type="matrix" values="0 0 0 0 0 0 0 0 0 0 0 0 0 0 0 0 0 0 0.25 0"/>
<feBlend mode="normal" in2="BackgroundImageFix" result="effect1_dropShadow_485_866"/>
<feBlend mode="normal" in="SourceGraphic" in2="effect1_dropShadow_485_866" result="shape"/>
</filter>
<linearGradient id="paint0_linear_485_866" x1="368.25" y1="465" x2="368.25" y2="572.837" gradientUnits="userSpaceOnUse">
<stop stop-color="#C23BF9"/>
<stop offset="1" stop-color="#D8A8FA"/>
</linearGradient>
<linearGradient id="paint1_linear_485_866" x1="342.75" y1="512" x2="342.75" y2="549.065" gradientUnits="userSpaceOnUse">
<stop stop-color="#C23BF9"/>
<stop offset="1" stop-color="#D8A8FA"/>
</linearGradient>
<linearGradient id="paint2_linear_485_866" x1="368.25" y1="512" x2="368.25" y2="549.065" gradientUnits="userSpaceOnUse">
<stop stop-color="#C23BF9"/>
<stop offset="1" stop-color="#D8A8FA"/>
</linearGradient>
<linearGradient id="paint3_linear_485_866" x1="356" y1="540" x2="356" y2="597" gradientUnits="userSpaceOnUse">
<stop stop-color="#C23BF9"/>
<stop offset="1" stop-color="#E9C0F9"/>
</linearGradient>
<clipPath id="clip0_485_866">
<path d="M18 17H678C692.359 17 704 28.6406 704 43V1015C704 1029.36 692.359 1041 678 1041H18V17Z" fill="white"/>
</clipPath>
</defs>
</svg>
